<?xml version="1.0" encoding="iso-8859-1"?>
<!-- Generator: Adobe Illustrator 19.0.0, SVG Export Plug-In . SVG Version: 6.00 Build 0)  -->
<svg version="1.1" id="Layer_1" xmlns="http://www.w3.org/2000/svg" xmlns:xlink="http://www.w3.org/1999/xlink" x="0px" y="0px"
	 viewBox="0 0 504.123 504.123" style="enable-background:new 0 0 504.123 504.123;" xml:space="preserve">
<circle style="fill:#90DFAA;" cx="252.062" cy="252.062" r="252.062"/>
<path style="fill:#2C9984;" d="M167.778,94.523c-40.566,0-73.255,32.689-73.255,73.255l0,0c0,40.566,32.689,73.255,73.255,73.255
	s73.255-32.689,73.255-73.255l0,0C241.428,127.212,208.345,94.523,167.778,94.523z"/>
<path style="fill:#4CDBC4;" d="M167.778,225.674c-31.902,0-57.502-25.994-57.502-57.502c0-31.902,25.994-57.895,57.502-57.895
	c31.902,0,57.502,25.994,57.502,57.502C225.674,199.68,199.68,225.674,167.778,225.674z"/>
<path style="fill:#F9B54C;" d="M336.345,94.523c-40.566,0-73.255,32.689-73.255,73.255l0,0c0,40.566,32.689,73.255,73.255,73.255
	s73.255-32.689,73.255-73.255l0,0C409.6,127.212,376.911,94.523,336.345,94.523z"/>
<path style="fill:#FFD05B;" d="M336.345,225.674c-31.902,0-57.502-25.994-57.502-57.502c0-31.902,25.994-57.502,57.502-57.502
	c31.902,0,57.502,25.994,57.502,57.502S367.852,225.674,336.345,225.674z"/>
<circle style="fill:#F1543F;" cx="167.778" cy="336.345" r="73.255"/>
<path style="fill:#FF7058;" d="M167.778,393.846c-31.508,0-57.502-25.994-57.502-57.502s25.994-57.502,57.502-57.502
	c31.902,0,57.502,25.994,57.502,57.502S199.68,393.846,167.778,393.846z"/>
<circle style="fill:#54C0EB;" cx="336.345" cy="336.345" r="73.255"/>
<path style="fill:#84DBFF;" d="M336.345,393.846c-31.902,0-57.502-25.994-57.502-57.502s25.994-57.502,57.502-57.502
	c31.902,0,57.502,25.994,57.502,57.502S367.852,393.846,336.345,393.846z"/>
<g>
	<path style="fill:#324A5E;" d="M141.785,165.415v-6.695h8.271c1.575-5.514,4.726-10.24,9.058-13.391
		c4.332-3.151,9.452-5.12,14.966-5.12c8.271,0,14.966,3.151,19.692,9.058l-5.514,7.089c-2.363-2.363-4.332-4.332-6.695-5.12
		c-1.969-1.182-4.726-1.575-7.877-1.575c-3.151,0-5.908,0.788-8.271,2.363c-2.363,1.575-4.332,3.938-5.514,6.695h18.905v6.695
		h-20.48c0,0.788,0,1.575,0,2.757c0,1.182,0,2.363,0.394,3.545h20.086v6.695h-18.117c2.757,5.514,7.089,8.271,12.997,8.271
		c2.757,0,5.12-0.394,7.483-1.575c1.969-1.182,4.332-2.757,6.302-5.12l5.514,6.695c-4.726,5.908-11.422,9.058-19.298,9.058
		c-5.514,0-10.24-1.575-14.572-4.726c-4.332-3.151-7.089-7.483-9.058-12.603h-8.271v-6.695h7.089c0-1.182-0.394-2.363-0.394-3.938
		c0-1.182,0-2.363,0-2.757h-6.695V165.415z"/>
	<path style="fill:#324A5E;" d="M334.375,200.468v-5.908c-7.089-0.788-13.785-3.545-19.298-8.665l5.908-6.695
		c4.332,3.938,9.058,6.302,13.785,6.695v-15.36c-5.908-1.575-10.24-3.151-12.997-5.514c-2.757-2.363-3.938-5.908-3.938-10.24
		c0-4.332,1.575-8.271,4.726-11.028s7.483-4.332,12.603-4.726v-3.938h5.12v3.938c5.908,0.394,11.422,2.363,16.542,5.908l-5.12,7.089
		c-3.545-2.363-7.089-3.938-11.422-4.726v14.966h0.394c5.908,1.575,10.634,3.151,13.391,5.908c2.757,2.363,4.332,5.908,4.332,10.634
		c0,4.726-1.575,8.271-4.726,11.028c-3.151,2.757-7.483,4.332-12.997,4.726v5.514h-6.301V200.468z M328.862,149.662
		c-1.182,1.182-1.969,2.757-1.969,4.332c0,1.575,0.394,3.151,1.575,4.332s3.151,1.969,5.908,3.151v-13.785
		C332.012,148.086,330.043,148.48,328.862,149.662z M345.403,184.32c1.575-1.182,2.363-2.757,2.363-4.726
		c0-1.969-0.394-3.151-1.575-4.332s-3.151-1.969-6.302-3.151v14.178C341.858,186.289,343.828,185.502,345.403,184.32z"/>
	<path style="fill:#324A5E;" d="M332.406,324.923v10.24h12.997v7.877h-12.997v14.178h23.631v8.271h-39.385v-8.271h6.302v-14.572
		h-6.695v-7.877h6.695v-9.846c0-6.302,1.575-11.028,4.726-13.785c3.151-2.757,7.483-4.332,12.603-4.332
		c6.695,0,12.209,2.757,15.36,8.665l-6.695,5.12c-1.969-3.545-5.12-5.514-8.271-5.514c-2.363,0-4.726,0.788-6.302,2.363
		C332.8,319.015,332.406,321.378,332.406,324.923z"/>
	<path style="fill:#324A5E;" d="M147.692,347.372h14.966v-4.332l-0.394-0.394h-14.572v-7.089h10.634l-15.754-27.963h10.24
		l14.966,26.388h0.394l15.36-26.388h9.846l-16.148,27.569h10.24v7.483h-14.572l-0.394,0.394v4.332h14.966v7.089h-14.966v10.24
		h-9.846v-10.24h-14.966V347.372z"/>
</g>
<g>
</g>
<g>
</g>
<g>
</g>
<g>
</g>
<g>
</g>
<g>
</g>
<g>
</g>
<g>
</g>
<g>
</g>
<g>
</g>
<g>
</g>
<g>
</g>
<g>
</g>
<g>
</g>
<g>
</g>
</svg>
