<?xml version="1.0" encoding="iso-8859-1"?>
<!-- Generator: Adobe Illustrator 19.0.0, SVG Export Plug-In . SVG Version: 6.00 Build 0)  -->
<svg version="1.1" id="Capa_1" xmlns="http://www.w3.org/2000/svg" xmlns:xlink="http://www.w3.org/1999/xlink" x="0px" y="0px"
	 viewBox="0 0 512 512" style="enable-background:new 0 0 512 512;" xml:space="preserve">
<circle style="fill:#0074A3;" cx="256" cy="256" r="256"/>
<path style="fill:#005C83;" d="M212.286,119.037l53.256,53.256L115.121,304l50.053,50.053l-42.747,48.198l108.527,108.527
	c8.241,0.8,16.594,1.221,25.045,1.221c20.55,0,40.527-2.437,59.676-7.01l0.218-0.218l0.132,0.132C428.448,477.89,512,376.71,512,256
	c0-11.333-0.745-22.49-2.173-33.433L371.276,84.015L212.286,119.037z"/>
<g>
	<path style="fill:#FFFFFF;" d="M183.121,304h-68v-34.896c0-57.782,47.009-104.791,104.791-104.791h224.253v68H219.912
		c-20.286,0-36.791,16.504-36.791,36.791V304z"/>
	<path style="fill:#FFFFFF;" d="M219.912,164.313c-57.782,0-104.791,47.009-104.791,104.791V304h68v-34.896
		c0-20.287,16.505-36.791,36.791-36.791h73.755v-68H219.912z"/>
</g>
<g>
	<rect x="293.67" y="164.31" style="fill:#E0E0E0;" width="150.5" height="68"/>
	<rect x="280" y="103.5" style="fill:#E0E0E0;" width="27.333" height="60.5"/>
</g>
<rect x="293.67" y="103.5" style="fill:#C0C0C0;" width="13.667" height="60.5"/>
<polyline style="fill:#FFFFFF;" points="259.667,142.182 327.667,142.182 327.667,198.313 259.667,198.313 "/>
<rect x="293.67" y="142.18" style="fill:#E0E0E0;" width="34" height="56.13"/>
<path style="fill:#35CCFF;" d="M113.545,378.746c0-19.648,35.576-68.476,35.576-68.476s35.576,48.828,35.576,68.476
	s-15.928,35.576-35.576,35.576S113.545,398.394,113.545,378.746z"/>
<path style="fill:#00BAFF;" d="M149.121,414.322c19.648,0,35.576-15.928,35.576-35.576c0-19.648-35.576-68.476-35.576-68.476
	V414.322z"/>
<path style="fill:#FFFFFF;" d="M207,103.5c0-14.083,11.417-25.5,25.5-25.5s61.167,25.5,61.167,25.5S246.583,129,232.5,129
	S207,117.583,207,103.5z"/>
<path style="fill:#E0E0E0;" d="M380.333,103.5c0,14.083-11.417,25.5-25.5,25.5s-61.167-25.5-61.167-25.5S340.75,78,354.833,78
	C368.916,78,380.333,89.416,380.333,103.5z"/>
<circle style="fill:#FFFFFF;" cx="293.67" cy="103.5" r="24.07"/>
<path style="fill:#E0E0E0;" d="M317.735,103.5c0-13.293-10.776-24.068-24.068-24.069v48.137
	C306.959,127.568,317.735,116.792,317.735,103.5z"/>
<g>
</g>
<g>
</g>
<g>
</g>
<g>
</g>
<g>
</g>
<g>
</g>
<g>
</g>
<g>
</g>
<g>
</g>
<g>
</g>
<g>
</g>
<g>
</g>
<g>
</g>
<g>
</g>
<g>
</g>
</svg>
