<?xml version="1.0" encoding="UTF-8" standalone="no"?>
<!DOCTYPE svg PUBLIC "-//W3C//DTD SVG 1.1//EN" "http://www.w3.org/Graphics/SVG/1.1/DTD/svg11.dtd">
<svg version="1.1" xmlns="http://www.w3.org/2000/svg" xmlns:xlink="http://www.w3.org/1999/xlink" preserveAspectRatio="xMidYMid meet" viewBox="0 0 640 640" width="640" height="640"><defs><path d="M232.5 615.63L232.5 514.38L407.5 514.38L407.5 615.63" id="bk5EKgX4V"></path><path d="M320 615.63L320 514.38L407.5 514.38L407.5 615.63" id="b2mZJWmtw"></path><path d="M131.25 193.13C131.25 257.51 131.25 293.28 131.25 300.43C131.25 402.19 182.84 497.02 268.27 552.3C269.68 553.12 280.89 559.64 282.29 560.45C305.6 574.02 334.4 574.02 357.71 560.45C359.11 559.64 370.32 553.12 371.72 552.3C457.16 497.02 508.75 402.19 508.75 300.43C508.75 293.28 508.75 257.51 508.75 193.13" id="h41D01IAeY"></path><path d="M320 570.63C333.03 570.63 346.05 567.24 357.71 560.45C359.11 559.64 370.32 553.12 371.73 552.3C457.16 497.02 508.75 402.19 508.75 300.43C508.75 293.28 508.75 257.51 508.75 193.13L320 193.13C320 419.63 320 545.46 320 570.63Z" id="hiV9MNLhi"></path><path d="M282.5 418.13C290 418.13 350 418.13 357.5 418.13C357.5 397.41 340.71 380.63 320 380.63C299.29 380.63 282.5 397.41 282.5 418.13Z" id="a53VboipBR"></path><path d="M266.97 358.75C296.26 329.58 343.74 329.58 373.03 358.75C373.03 358.75 373.03 358.75 373.03 358.75C387.1 372.76 406.18 380.63 426.07 380.63C433.24 380.63 490.65 380.63 497.83 380.63C504.99 354.83 508.75 327.88 508.75 300.43C508.75 293.28 508.75 257.51 508.75 193.13L131.25 193.13C131.25 257.51 131.25 293.28 131.25 300.43C131.25 327.88 135.01 354.82 142.17 380.63C149.35 380.63 206.76 380.63 213.93 380.63C233.83 380.63 252.9 372.76 266.97 358.75C266.97 358.75 266.97 358.75 266.97 358.75Z" id="a1S7uFtnjl"></path><path d="M320 336.88C339.19 336.88 358.39 344.17 373.03 358.75C373.03 358.75 373.03 358.75 373.03 358.75C387.1 372.76 406.17 380.63 426.06 380.63C433.24 380.63 490.65 380.63 497.83 380.63C504.99 354.83 508.75 327.88 508.75 300.43C508.75 293.28 508.75 257.51 508.75 193.13L320 193.13C320 279.38 320 327.29 320 336.88Z" id="a7CLb5CWv"></path><path d="M243.18 305.63C221.73 305.63 202.46 293.71 192.87 274.53C191.82 272.44 186.58 261.97 177.16 243.13C203.96 243.12 218.85 243.12 221.82 243.13C243.27 243.13 262.55 255.04 272.14 274.22C273.18 276.31 278.42 286.78 287.84 305.63C261.04 305.63 246.15 305.63 243.18 305.63Z" id="c3nXsfYDRR"></path><path d="M352.16 305.63C361.58 286.78 366.82 276.31 367.86 274.22C377.46 255.04 396.73 243.13 418.18 243.13C421.15 243.12 436.04 243.12 462.84 243.13C453.42 261.97 448.18 272.44 447.14 274.53C437.55 293.71 418.27 305.63 396.82 305.63C390.87 305.63 375.98 305.63 352.16 305.63Z" id="e1y303dmWt"></path><path d="M527.5 24.38L112.5 24.38L112.5 161.88L0 161.88L0 199.38L640 199.38L640 161.88L527.5 161.88L527.5 24.38Z" id="blkL0O55X"></path><path d="M527.5 24.38L320 24.38L320 199.38L640 199.38L640 161.88L527.5 161.88L527.5 24.38Z" id="a1fcKLEoYE"></path><path d="M357.5 418.13C357.5 397.41 340.71 380.63 320 380.63C320 383.13 320 395.63 320 418.13C342.5 418.13 355 418.13 357.5 418.13Z" id="j4ckZFLD1y"></path><path d="M578.95 631.74C589.96 642.75 607.73 642.75 618.73 631.74C620.06 630.42 630.67 619.81 631.99 618.48C643 607.48 643 589.71 631.99 578.7C630.71 577.41 624.27 570.97 612.67 559.38L584.43 557.65L564.27 564.02L543.98 570.25L532.31 585.11C560.3 613.09 575.84 628.64 578.95 631.74Z" id="f1RaJtzvzc"></path><path d="M532.31 585.11C560.29 613.09 575.84 628.64 578.95 631.74C589.96 642.75 607.73 642.75 618.73 631.74C619.18 631.3 621.39 629.09 625.36 625.11L564.27 564.02L543.98 570.25L532.31 585.11Z" id="c2f7xJIsVG"></path><path d="M532.31 585.11L572.49 572.24L612.67 559.38L572.89 519.6L544.64 517.87L524.49 524.24L504.2 530.47L492.53 545.32L532.31 585.11Z" id="dy4DhD1CE"></path><path d="M492.53 545.32L532.31 585.11L572.49 572.24L524.49 524.24L504.2 530.47L492.53 545.32Z" id="dVyhvxlKs"></path><path d="M492.53 545.32L532.71 532.46L572.89 519.6C521.57 468.28 493.06 439.77 487.36 434.06C483.64 430.35 477.81 430.35 474.1 434.06C470.12 438.04 438.29 469.87 434.31 473.85C430.6 477.56 430.6 483.39 434.31 487.11C442.08 494.87 461.48 514.27 492.53 545.32Z" id="g1KGoC2qSf"></path><path d="M492.53 545.32L532.71 532.46L454.2 453.96C442.27 465.89 435.64 472.52 434.31 473.85C430.6 477.56 430.6 483.39 434.31 487.11C442.08 494.87 461.48 514.27 492.53 545.32Z" id="a53pbkbsi"></path><path d="M368.01 460.59C371.67 456.93 371.67 450.98 368.01 447.32C370.14 447.69 380.78 449.49 399.94 452.73L421.05 473.85C421.05 489.76 421.05 498.6 421.05 500.37C417.39 496.71 411.45 496.71 407.79 500.37C404.13 504.03 404.13 509.97 407.79 513.63C406.91 513.63 402.49 513.63 394.53 513.63L354.75 473.85L354.75 460.59C361.15 463.02 365.57 463.02 368.01 460.59Z" id="bU4cw735h"></path><path d="M407.79 526.89C411.46 523.22 411.46 517.29 407.79 513.63C402.49 508.32 360.05 465.89 354.75 460.59C351.08 456.92 345.15 456.92 341.49 460.59C340.16 461.91 329.55 472.52 328.23 473.85C317.26 484.81 317.26 502.66 328.23 513.63C330.88 516.28 352.1 537.5 354.75 540.15C365.72 551.12 383.56 551.12 394.53 540.15C397.18 537.5 406.47 528.22 407.79 526.89Z" id="j1n7rrs4gI"></path><path d="M460.83 341.24C479.13 322.94 508.84 322.94 527.14 341.24C530.85 344.95 530.85 350.79 527.14 354.5C524.49 357.15 503.27 378.37 500.62 381.02C489.61 392.03 489.61 409.8 500.62 420.8C504.33 424.52 504.33 430.35 500.62 434.06C493.99 440.69 440.94 493.74 434.31 500.37C430.6 504.08 424.77 504.08 421.05 500.37C415.75 495.06 373.31 452.63 368.01 447.33C364.3 443.61 364.3 437.78 368.01 434.06C386.57 415.5 451.55 350.52 460.83 341.24Z" id="d39bHvQBkC"></path><path d="M421.05 500.37C424.77 504.08 430.6 504.08 434.31 500.37C436.52 498.16 447.57 487.11 467.47 467.22L401.16 400.91C381.27 420.8 370.22 431.85 368.01 434.06C364.3 437.78 364.3 443.61 368.01 447.33C378.62 457.93 415.75 495.06 421.05 500.37Z" id="b3Edd1rr6D"></path></defs><g><g><g><use xlink:href="#bk5EKgX4V" opacity="1" fill="#fec478" fill-opacity="1"></use><g><use xlink:href="#bk5EKgX4V" opacity="1" fill-opacity="0" stroke="#000000" stroke-width="1" stroke-opacity="0"></use></g></g><g><use xlink:href="#b2mZJWmtw" opacity="1" fill="#fea832" fill-opacity="1"></use><g><use xlink:href="#b2mZJWmtw" opacity="1" fill-opacity="0" stroke="#000000" stroke-width="1" stroke-opacity="0"></use></g></g><g><use xlink:href="#h41D01IAeY" opacity="1" fill="#fedbab" fill-opacity="1"></use><g><use xlink:href="#h41D01IAeY" opacity="1" fill-opacity="0" stroke="#000000" stroke-width="1" stroke-opacity="0"></use></g></g><g><use xlink:href="#hiV9MNLhi" opacity="1" fill="#fec478" fill-opacity="1"></use><g><use xlink:href="#hiV9MNLhi" opacity="1" fill-opacity="0" stroke="#000000" stroke-width="1" stroke-opacity="0"></use></g></g><g><use xlink:href="#a53VboipBR" opacity="1" fill="#fec478" fill-opacity="1"></use><g><use xlink:href="#a53VboipBR" opacity="1" fill-opacity="0" stroke="#000000" stroke-width="1" stroke-opacity="0"></use></g></g><g><use xlink:href="#a1S7uFtnjl" opacity="1" fill="#063e8b" fill-opacity="1"></use><g><use xlink:href="#a1S7uFtnjl" opacity="1" fill-opacity="0" stroke="#000000" stroke-width="1" stroke-opacity="0"></use></g></g><g><use xlink:href="#a7CLb5CWv" opacity="1" fill="#032e68" fill-opacity="1"></use><g><use xlink:href="#a7CLb5CWv" opacity="1" fill-opacity="0" stroke="#000000" stroke-width="1" stroke-opacity="0"></use></g></g><g><use xlink:href="#c3nXsfYDRR" opacity="1" fill="#fedbab" fill-opacity="1"></use><g><use xlink:href="#c3nXsfYDRR" opacity="1" fill-opacity="0" stroke="#000000" stroke-width="1" stroke-opacity="0"></use></g></g><g><use xlink:href="#e1y303dmWt" opacity="1" fill="#fec478" fill-opacity="1"></use><g><use xlink:href="#e1y303dmWt" opacity="1" fill-opacity="0" stroke="#000000" stroke-width="1" stroke-opacity="0"></use></g></g><g><use xlink:href="#blkL0O55X" opacity="1" fill="#0a4eaf" fill-opacity="1"></use><g><use xlink:href="#blkL0O55X" opacity="1" fill-opacity="0" stroke="#000000" stroke-width="1" stroke-opacity="0"></use></g></g><g><use xlink:href="#a1fcKLEoYE" opacity="1" fill="#063e8b" fill-opacity="1"></use><g><use xlink:href="#a1fcKLEoYE" opacity="1" fill-opacity="0" stroke="#000000" stroke-width="1" stroke-opacity="0"></use></g></g><g><use xlink:href="#j4ckZFLD1y" opacity="1" fill="#fea832" fill-opacity="1"></use><g><use xlink:href="#j4ckZFLD1y" opacity="1" fill-opacity="0" stroke="#000000" stroke-width="1" stroke-opacity="0"></use></g></g><g><g><use xlink:href="#f1RaJtzvzc" opacity="1" fill="#606060" fill-opacity="1"></use><g><use xlink:href="#f1RaJtzvzc" opacity="1" fill-opacity="0" stroke="#000000" stroke-width="1" stroke-opacity="0"></use></g></g><g><use xlink:href="#c2f7xJIsVG" opacity="1" fill="#404040" fill-opacity="1"></use><g><use xlink:href="#c2f7xJIsVG" opacity="1" fill-opacity="0" stroke="#000000" stroke-width="1" stroke-opacity="0"></use></g></g><g><use xlink:href="#dy4DhD1CE" opacity="1" fill="#ffda63" fill-opacity="1"></use><g><use xlink:href="#dy4DhD1CE" opacity="1" fill-opacity="0" stroke="#000000" stroke-width="1" stroke-opacity="0"></use></g></g><g><use xlink:href="#dVyhvxlKs" opacity="1" fill="#ffca00" fill-opacity="1"></use><g><use xlink:href="#dVyhvxlKs" opacity="1" fill-opacity="0" stroke="#000000" stroke-width="1" stroke-opacity="0"></use></g></g><g><use xlink:href="#g1KGoC2qSf" opacity="1" fill="#606060" fill-opacity="1"></use><g><use xlink:href="#g1KGoC2qSf" opacity="1" fill-opacity="0" stroke="#000000" stroke-width="1" stroke-opacity="0"></use></g></g><g><use xlink:href="#a53pbkbsi" opacity="1" fill="#404040" fill-opacity="1"></use><g><use xlink:href="#a53pbkbsi" opacity="1" fill-opacity="0" stroke="#000000" stroke-width="1" stroke-opacity="0"></use></g></g><g><use xlink:href="#bU4cw735h" opacity="1" fill="#606060" fill-opacity="1"></use><g><use xlink:href="#bU4cw735h" opacity="1" fill-opacity="0" stroke="#000000" stroke-width="1" stroke-opacity="0"></use></g></g><g><use xlink:href="#j1n7rrs4gI" opacity="1" fill="#8f8f8f" fill-opacity="1"></use><g><use xlink:href="#j1n7rrs4gI" opacity="1" fill-opacity="0" stroke="#000000" stroke-width="1" stroke-opacity="0"></use></g></g><g><use xlink:href="#d39bHvQBkC" opacity="1" fill="#e8e8e8" fill-opacity="1"></use><g><use xlink:href="#d39bHvQBkC" opacity="1" fill-opacity="0" stroke="#000000" stroke-width="1" stroke-opacity="0"></use></g></g><g><use xlink:href="#b3Edd1rr6D" opacity="1" fill="#bfbfbf" fill-opacity="1"></use><g><use xlink:href="#b3Edd1rr6D" opacity="1" fill-opacity="0" stroke="#000000" stroke-width="1" stroke-opacity="0"></use></g></g></g></g></g></svg>