<?xml version="1.0" encoding="iso-8859-1"?>
<!-- Generator: Adobe Illustrator 19.0.0, SVG Export Plug-In . SVG Version: 6.00 Build 0)  -->
<svg version="1.1" id="Layer_1" xmlns="http://www.w3.org/2000/svg" xmlns:xlink="http://www.w3.org/1999/xlink" x="0px" y="0px"
	 viewBox="0 0 512 512" style="enable-background:new 0 0 512 512;" xml:space="preserve">
<circle style="fill:#386895;" cx="256" cy="256" r="256"/>
<path style="fill:#273B7A;" d="M512,256c0-2.341-0.036-4.672-0.098-6.999L407.5,144.599L306.76,289.285l-204.385,76.128
	L248.86,511.897c2.374,0.066,4.753,0.103,7.142,0.103C397.384,512,512,397.384,512,256z"/>
<path style="fill:#D0D1D3;" d="M400.305,369.778H111.694c-6.704,0-12.14-5.435-12.14-12.14V154.36
	c0-6.704,5.435-12.138,12.14-12.138h288.611c6.704,0,12.14,5.435,12.14,12.138v203.278
	C412.444,364.342,407.009,369.778,400.305,369.778z"/>
<path style="fill:#A6A8AA;" d="M400.305,142.222H255.424v227.556h144.88c6.704,0,12.14-5.435,12.14-12.14V154.362
	C412.444,147.658,407.009,142.222,400.305,142.222z"/>
<circle style="fill:#C92F00;" cx="116.364" cy="156.444" r="6.896"/>
<circle style="fill:#EAA22F;" cx="140.067" cy="156.444" r="6.896"/>
<circle style="fill:#386895;" cx="163.771" cy="156.444" r="6.896"/>
<path style="fill:#FFFFFF;" d="M393.051,162.478H184.458c-3.332,0-6.034-2.701-6.034-6.034l0,0c0-3.332,2.701-6.034,6.034-6.034
	h208.593c3.332,0,6.034,2.701,6.034,6.034l0,0C399.084,159.777,396.383,162.478,393.051,162.478z"/>
<path style="fill:#D0D1D3;" d="M393.051,150.411H255.426v12.067h137.625c3.332,0,6.034-2.701,6.034-6.034
	S396.383,150.411,393.051,150.411z"/>
<rect x="112.916" y="175.838" style="fill:#3F3C3C;" width="286.168" height="181.01"/>
<rect x="255.431" y="175.838" style="fill:#272525;" width="143.653" height="181.01"/>
<path style="fill:#FF5419;" d="M213.495,309.172c-1.324,0-2.646-0.505-3.656-1.515l-37.657-37.655
	c-0.971-0.969-1.515-2.284-1.515-3.656c0-1.372,0.545-2.688,1.515-3.656l37.657-37.657c2.02-2.02,5.292-2.02,7.313,0
	c2.02,2.019,2.02,5.294,0,7.313l-33.999,34.001l33.999,33.999c2.02,2.019,2.02,5.292,0,7.313
	C216.142,308.667,214.818,309.172,213.495,309.172z"/>
<path style="fill:#C92F00;" d="M298.506,309.172c-1.324,0-2.646-0.505-3.656-1.515c-2.02-2.019-2.02-5.292,0-7.313l33.999-34.001
	l-34.001-34.001c-2.02-2.019-2.02-5.294,0-7.313c2.02-2.02,5.292-2.02,7.313,0l37.657,37.657c2.02,2.019,2.02,5.292,0,7.313
	l-37.655,37.657C301.153,308.667,299.83,309.172,298.506,309.172z"/>
<path style="fill:#FF5419;" d="M235.172,309.174c-0.777,0-1.567-0.178-2.31-0.546c-2.553-1.277-3.589-4.384-2.313-6.939
	l37.657-75.312c1.279-2.553,4.391-3.586,6.939-2.313c2.553,1.277,3.589,4.384,2.313,6.939L239.8,306.314
	C238.894,308.124,237.068,309.174,235.172,309.174z"/>
<path style="fill:#C92F00;" d="M275.144,224.063c-2.55-1.272-5.66-0.241-6.939,2.313l-12.779,25.559v23.131l22.032-44.063
	C278.733,228.447,277.699,225.34,275.144,224.063z"/>
<g>
</g>
<g>
</g>
<g>
</g>
<g>
</g>
<g>
</g>
<g>
</g>
<g>
</g>
<g>
</g>
<g>
</g>
<g>
</g>
<g>
</g>
<g>
</g>
<g>
</g>
<g>
</g>
<g>
</g>
</svg>
