<?xml version="1.0" encoding="UTF-8" standalone="no"?>
<!DOCTYPE svg PUBLIC "-//W3C//DTD SVG 1.1//EN" "http://www.w3.org/Graphics/SVG/1.1/DTD/svg11.dtd">
<svg version="1.1" xmlns="http://www.w3.org/2000/svg" xmlns:xlink="http://www.w3.org/1999/xlink" preserveAspectRatio="xMidYMid meet" viewBox="0 0 640 640" width="640" height="640"><defs><path d="M319.99 0C143.26 0 0 143.26 0 319.99C0 496.72 143.26 639.98 319.99 639.98C496.72 639.98 639.98 496.72 639.98 319.99C639.98 143.26 496.72 0 319.99 0Z" id="a34vC11gZ5"></path><path d="M428.13 56.67C430.31 59.81 428.19 64.09 424.37 64.09C421.48 64.09 398.4 64.09 395.51 64.09C381.38 64.09 369.82 75.66 369.82 89.79C369.82 103.92 381.38 115.48 395.51 115.48C432.69 115.48 463.04 115.48 500.43 115.48C521.43 115.48 533.59 91.46 521.05 74.55C520.47 73.35 520.46 72.05 520.86 70.91C495.1 50.11 466.05 33.23 434.61 21.16C423.67 28.83 419.64 44.41 428.13 56.67Z" id="fWuSOBhyn"></path><path d="M61.22 168.88C82.5 168.88 94.67 192.18 82.93 209.11C80.75 212.25 82.87 216.53 86.69 216.53C86.87 216.53 87.74 216.53 89.32 216.53C103.56 216.53 111.47 216.53 113.05 216.53C127.18 216.53 138.74 228.1 138.74 242.23C138.74 256.36 127.18 267.92 113.05 267.92C99.57 267.92 18.68 267.92 4.74 267.92C10.51 232.64 22.05 199.29 38.37 168.88C43.28 168.88 48.99 168.88 61.22 168.88Z" id="k4ufafxt4s"></path><path d="M368.83 176.67L368.83 137.77C398.7 137.77 415.3 137.77 418.62 137.77C421 137.77 422.4 140.43 421.06 142.38C420.16 143.7 412.94 154.23 412.04 155.55C411.35 156.56 411.35 157.88 412.04 158.88C412.94 160.2 420.16 170.74 421.06 172.05C422.4 174.01 421 176.67 418.62 176.67C411.98 176.67 395.38 176.67 368.83 176.67Z" id="c3Wy9ffgsD"></path><path d="M373.67 134C373.67 131.33 371.5 129.16 368.82 129.16C368.82 129.16 368.82 129.16 368.82 129.16C366.15 129.16 363.98 131.33 363.98 134C363.98 139.72 363.98 168.31 363.98 219.77L373.67 219.77L373.67 219.77C373.67 168.31 373.67 139.72 373.67 134Z" id="c154nvikGY"></path><path d="M199.69 495.1C133.32 495.1 96.45 495.1 89.07 495.1C84.25 495.1 81.36 489.73 84.01 485.71C84.94 484.3 89.58 477.25 97.95 464.56C170.34 354.64 210.56 293.58 218.61 281.37C221 277.73 226.33 277.73 228.73 281.37C230.38 283.94 238.63 296.78 253.49 319.9L283.38 366.38L199.69 495.1Z" id="bqeXGqign"></path><path d="M160.63 464.56L97.95 464.56C89.59 477.25 84.94 484.3 84.01 485.71C81.36 489.74 84.25 495.1 89.07 495.1C92.53 495.1 109.85 495.1 141.03 495.1L175.48 495.1C175.48 495.1 175.48 495.1 175.48 495.1C190.58 495.1 204.66 487.46 212.9 474.79C217.59 467.57 241.09 431.43 283.38 366.38L253.49 319.9L160.63 464.56Z" id="c381eI2pUK"></path><path d="M175.48 495.1L229.87 412.53C310.21 290.55 354.84 222.79 363.77 209.24C366.16 205.61 371.49 205.6 373.88 209.24C378.18 215.77 399.68 248.41 438.39 307.16L454.01 330.88C515.2 423.78 549.19 475.39 555.99 485.71C558.64 489.74 555.76 495.1 550.94 495.1C500.88 495.1 375.72 495.1 175.48 495.1Z" id="a27z1pUAHm"></path><path d="M368.83 414.7L321.49 372.7L175.49 495.1L175.48 495.1L229.87 412.53C282.25 367.75 311.35 342.87 317.17 337.89C319.47 335.93 322.86 335.96 325.12 337.96C329.03 341.44 360.35 369.22 364.26 372.7C366.65 374.82 370.27 374.72 372.54 372.47C376.93 368.11 398.88 346.34 438.39 307.16L453.74 330.48L368.83 414.7Z" id="bl70xquZN"></path><path d="M219.77 495.1L258.54 465.2C292.51 436.4 311.39 420.4 315.16 417.2C317.48 415.23 320.91 415.3 323.16 417.35C326.98 420.84 357.56 448.76 361.38 452.25C363.73 454.4 367.35 454.36 369.65 452.16C377.05 445.08 436.31 388.45 443.71 381.38C446.44 378.77 450.86 379.26 452.94 382.41C456.6 387.93 474.88 415.53 507.78 465.2L527.57 495.1L219.77 495.1Z" id="bvmtK3kGD"></path><path d="M219.77 495.1L258.54 465.2L507.78 465.2L527.57 495.1L219.77 495.1Z" id="a2IAy2ygk7"></path><path d="M514.8 260.83C512.1 260.83 490.46 260.83 487.75 260.83C482.74 260.83 478.67 264.9 478.67 269.91C478.67 274.93 482.74 278.99 487.75 278.99C488.09 278.99 489.75 278.99 492.76 278.99L368.48 402.25C343.91 380.45 330.25 368.33 327.52 365.91C324.16 362.92 319.11 362.85 315.66 365.74C301.06 377.98 184.26 475.9 169.65 488.14C169.39 488.36 169.15 488.59 168.91 488.83C168.91 488.83 168.9 488.84 168.9 488.85C165.44 492.48 165.59 498.22 169.22 501.68C170.98 503.35 173.23 504.18 175.48 504.18C177.6 504.18 179.71 503.45 181.41 501.99C190.73 494.17 237.37 455.07 321.33 384.7C346.21 406.77 360.03 419.04 362.8 421.49C366.38 424.67 371.82 424.52 375.22 421.14C383.92 412.52 427.42 369.37 505.72 291.71C505.72 294.34 505.72 295.8 505.72 296.09C505.72 301.11 509.79 305.18 514.8 305.18C519.82 305.18 523.89 301.11 523.89 296.09C523.89 296.09 523.87 269.34 523.84 269.01C523.38 264.43 519.41 260.83 514.8 260.83Z" id="a3ZcJOSdj"></path></defs><g><g><g><use xlink:href="#a34vC11gZ5" opacity="1" fill="#0eb0ff" fill-opacity="1"></use><g><use xlink:href="#a34vC11gZ5" opacity="1" fill-opacity="0" stroke="#000000" stroke-width="1" stroke-opacity="0"></use></g></g><g><use xlink:href="#fWuSOBhyn" opacity="1" fill="#50d1dc" fill-opacity="1"></use><g><use xlink:href="#fWuSOBhyn" opacity="1" fill-opacity="0" stroke="#000000" stroke-width="1" stroke-opacity="0"></use></g></g><g><use xlink:href="#k4ufafxt4s" opacity="1" fill="#50d1dc" fill-opacity="1"></use><g><use xlink:href="#k4ufafxt4s" opacity="1" fill-opacity="0" stroke="#000000" stroke-width="1" stroke-opacity="0"></use></g></g><g><use xlink:href="#c3Wy9ffgsD" opacity="1" fill="#ffc200" fill-opacity="1"></use><g><use xlink:href="#c3Wy9ffgsD" opacity="1" fill-opacity="0" stroke="#000000" stroke-width="1" stroke-opacity="0"></use></g></g><g><use xlink:href="#c154nvikGY" opacity="1" fill="#00a5ff" fill-opacity="1"></use><g><use xlink:href="#c154nvikGY" opacity="1" fill-opacity="0" stroke="#000000" stroke-width="1" stroke-opacity="0"></use></g></g><g><use xlink:href="#bqeXGqign" opacity="1" fill="#ffc200" fill-opacity="1"></use><g><use xlink:href="#bqeXGqign" opacity="1" fill-opacity="0" stroke="#000000" stroke-width="1" stroke-opacity="0"></use></g></g><g><use xlink:href="#c381eI2pUK" opacity="1" fill="#ffb000" fill-opacity="1"></use><g><use xlink:href="#c381eI2pUK" opacity="1" fill-opacity="0" stroke="#000000" stroke-width="1" stroke-opacity="0"></use></g></g><g><use xlink:href="#a27z1pUAHm" opacity="1" fill="#efefef" fill-opacity="1"></use><g><use xlink:href="#a27z1pUAHm" opacity="1" fill-opacity="0" stroke="#000000" stroke-width="1" stroke-opacity="0"></use></g></g><g><use xlink:href="#bl70xquZN" opacity="1" fill="#e0e0e3" fill-opacity="1"></use><g><use xlink:href="#bl70xquZN" opacity="1" fill-opacity="0" stroke="#000000" stroke-width="1" stroke-opacity="0"></use></g></g><g><use xlink:href="#bvmtK3kGD" opacity="1" fill="#00a5ff" fill-opacity="1"></use><g><use xlink:href="#bvmtK3kGD" opacity="1" fill-opacity="0" stroke="#000000" stroke-width="1" stroke-opacity="0"></use></g></g><g><use xlink:href="#a2IAy2ygk7" opacity="1" fill="#0087ff" fill-opacity="1"></use><g><use xlink:href="#a2IAy2ygk7" opacity="1" fill-opacity="0" stroke="#000000" stroke-width="1" stroke-opacity="0"></use></g></g><g><use xlink:href="#a3ZcJOSdj" opacity="1" fill="#30d8b8" fill-opacity="1"></use><g><use xlink:href="#a3ZcJOSdj" opacity="1" fill-opacity="0" stroke="#000000" stroke-width="1" stroke-opacity="0"></use></g></g></g></g></svg>