<?xml version="1.0" encoding="UTF-8" standalone="no"?>
<svg
   xmlns:dc="http://purl.org/dc/elements/1.1/"
   xmlns:cc="http://creativecommons.org/ns#"
   xmlns:rdf="http://www.w3.org/1999/02/22-rdf-syntax-ns#"
   xmlns:svg="http://www.w3.org/2000/svg"
   xmlns="http://www.w3.org/2000/svg"
   xmlns:xlink="http://www.w3.org/1999/xlink"
   xmlns:sodipodi="http://sodipodi.sourceforge.net/DTD/sodipodi-0.dtd"
   xmlns:inkscape="http://www.inkscape.org/namespaces/inkscape"
   width="32"
   height="32"
   viewBox="0 0 32 32"
   version="1.1"
   id="s1"
   inkscape:version="0.48.4 r9939"
   sodipodi:docname="QR_icon.svg">
  <metadata
     id="metadata36">
    <rdf:RDF>
      <cc:Work
         rdf:about="">
        <dc:format>image/svg+xml</dc:format>
        <dc:type
           rdf:resource="http://purl.org/dc/dcmitype/StillImage" />
      </cc:Work>
    </rdf:RDF>
  </metadata>
  <defs
     id="defs34" />
  <sodipodi:namedview
     pagecolor="#ffffff"
     bordercolor="#666666"
     borderopacity="1"
     objecttolerance="10"
     gridtolerance="10"
     guidetolerance="10"
     inkscape:pageopacity="0"
     inkscape:pageshadow="2"
     inkscape:window-width="1366"
     inkscape:window-height="689"
     id="namedview32"
     showgrid="false"
     inkscape:zoom="79.245477"
     inkscape:cx="15.230798"
     inkscape:cy="14.22572"
     inkscape:window-x="0"
     inkscape:window-y="24"
     inkscape:window-maximized="1"
     inkscape:current-layer="s1" />
  <title
     id="title3">QR coder</title>
  <desc
     id="desc5">Manually edited diagram of qr code</desc>
  <!--  <rect x="0" y="0" width="300" height="422" stroke="none" fill="#CFA"/>  -->
  <g
     id="g3817"
     transform="scale(2,2)">
    <rect
       y="0"
       x="0"
       height="16"
       width="16"
       id="rect3015"
       style="fill:#ffffff;fill-opacity:1;stroke:none" />
    <g
       id="g7"
       transform="scale(0.5,0.5)"
       style="fill:none;stroke:#000000;stroke-width:2;stroke-linecap:butt">
      <path
         d="m 3,3 h 8 v 8 H 3 V 3 z m 3,4 h 2"
         id="A"
         inkscape:connector-curvature="0" />
      <use
         id="use10"
         y="0"
         x="18"
         xlink:href="#A"
         width="16"
         height="16" />
      <use
         id="use12"
         y="18"
         x="0"
         xlink:href="#A"
         width="16"
         height="16" />
      <path
         id="path14"
         d="m 18,3 h -3 v 4 h 2 v 4 h -2 v 3"
         inkscape:connector-curvature="0" />
      <path
         id="path16"
         d="m 2,15 h 2 m 2,0 h 4 m 6,0 h 2 m 2,0 h 4 m 4,0 h 2"
         inkscape:connector-curvature="0" />
      <path
         id="path18"
         d="m 4,17 h 2 m 2,0 h 8 m 6,0 h 2 m 2,0 h 4"
         inkscape:connector-curvature="0" />
      <path
         id="path20"
         d="m 14,19 h 2 m 2,0 h 2 m 6,0 h 2"
         inkscape:connector-curvature="0" />
      <path
         id="path22"
         d="m 16,21 h 2 m 2,0 h 8"
         inkscape:connector-curvature="0" />
      <path
         id="path24"
         d="m 14,23 h 2 m 2,0 h 2 m 4,0 h 2 m 2,0 h 2"
         inkscape:connector-curvature="0" />
      <path
         id="path26"
         d="m 14,25 h 4 m 2,0 h 2 m 2,0 h 4"
         inkscape:connector-curvature="0" />
      <path
         id="path28"
         d="m 14,27 h 2 m 6,0 h 2 m 4,0 h 2"
         inkscape:connector-curvature="0" />
      <path
         id="path30"
         d="m 16,29 h 8 m 2,0 h 2"
         inkscape:connector-curvature="0" />
    </g>
  </g>
  <!-- vim:nowrap:sw=2:so=2:et:ai: -->
</svg>
